<svg xmlns="http://www.w3.org/2000/svg" viewBox="0 0 128 128"><path fill="#F05340" d="M26.027 .137C25.824.215 20.086 3.484 13.281 7.395 5.035 12.137.801 14.633.574 14.867c-.18.203-.383.554-.446.777C-.043 16.219-.055 100.348.117 100.953c.062.234.266.578.45.77.444.468 49.671 28.773 50.268 28.91.278.066.59.055.899-.032.672-.168 49.769-28.41 50.207-28.871.18-.2.383-.543.449-.778.086-.277.117-4.676.117-13.937V73.48l11.969-6.875c11.285-6.488 11.977-6.895 12.266-7.34l.297-.48V44.207c0-15.872.031-14.977-.598-15.551-.168-.149-5.918-3.504-12.789-7.46L101.172 14.015l-1.387.001-12.21 7.011c-6.724 3.867-12.439 7.172-12.716 7.352-.277.184-.609.523-.746.77l-.246.425-.055 13.734-.051 17.472-10.082 5.809c-5.547 3.187-10.164 5.828-10.262 5.852-.18.05-.192-1.258-.192-26.504V15.633l-.266-.457c-.332-.554 1.161.332-13.824-8.281C26.57-.332 26.871-.18 26.027.137zM37.578 10.656c5.258 3.016 9.559 5.512 9.559 5.543 0 .031-4.61 2.695-10.242 5.934L26.645 28.016 16.414 22.133C10.793 18.895 6.188 16.23 6.188 16.2c0-.032 4.597-2.696 10.218-5.926l10.207-5.871.703.383c.394.215 5.016 2.855 10.262 5.87zM110.73 24.191c5.536 3.188 10.114 5.82 10.157 5.864.117.106-20.184 11.774-20.461 11.762-.278-.008-20.329-11.57-20.32-11.711.01-.16 20.183-11.766 20.386-11.734.093.023 4.703 2.644 10.238 5.82zM14.828 25.875l9.758 5.617.054 27.813.051 27.816.238.375c.125.2.36.469.531.594.16.117 5.59 3.211 12.063 6.863l11.757 6.641v11.766c0 6.457-.043 11.754-.098 11.754-.043 0-10.207-5.816-22.582-12.938L4.105 99.238 4.075 59.465 4.055 19.703l.5.277c.289.153 4.906 2.805 10.273 5.895zM49.281 45.453v25.629l-.394.258c-.535.34-20.074 11.57-20.14 11.57-.032 0-.055-11.57-.055-25.714l.012-25.704 10.207-5.87c5.613-3.231 10.242-5.852 10.297-5.832.039.023.074 11.574.074 25.664zm38.941-5.895l10.231 5.883v11.66c0 11.063-.012 11.656-.18 11.594-.11-.043-4.738-2.695-10.293-5.895L77.867 56.992V45.336c0-6.418.031-11.66.063-11.66.042 0 4.671 2.644 10.292 5.882zm34.871 5.703c0 6.383-.043 11.649-.086 11.699-.074.118-20.309 11.778-20.438 11.778-.031 0-.062-5.242-.062-11.66V45.422l10.207-5.875c5.621-3.227 10.25-5.871 10.293-5.871.054 0 .086 5.21.086 11.586zM86.23 66.469c8.606 4.953 10.09 5.84 9.942 5.957-.098.063-3.36 1.938-7.243 4.157-3.883 2.214-13.94 7.949-22.36 12.746l-15.296 8.726-.489-.265C47.864 96.191 30.91 86.547 30.91 86.473c-.008-.16 44.856-25.942 45.035-25.875.086.031 4.715 2.672 10.286 5.87zM98.434 87.559L98.398 99.238 75.914 112.176c-12.371 7.121-22.539 12.937-22.59 12.937-.054 0-.097-4.754-.097-11.754V101.594l22.539-12.852c12.383-7.067 22.559-12.852 22.613-12.864.043 0 .063 5.254.055 11.68z"/></svg>